<svg width="50" height="50" viewBox="0 0 50 50" fill="none" xmlns="http://www.w3.org/2000/svg">
<g clip-path="url(#clip0_2_8)">
<path d="M49.167 35.1807C49.0146 35.1006 46.0039 33.5313 41.6689 32.6602C47.9434 25.3242 49.8769 16.8721 49.9629 16.4844C50.0781 15.9639 49.9199 15.4199 49.543 15.042C49.2471 14.7451 48.8476 14.583 48.4375 14.583C48.3262 14.583 48.2139 14.5947 48.1016 14.6201C47.7226 14.7031 39.6504 16.5332 32.4199 22.4092C32.4209 22.2666 32.4209 22.123 32.4209 21.9795C32.4209 10.3789 26.5635 1.1084 26.3144 0.719727C26.1734 0.499056 25.979 0.317456 25.7493 0.191672C25.5196 0.0658887 25.2619 -2.83021e-05 25 9.11585e-09C24.4678 9.11585e-09 23.9717 0.271484 23.6846 0.719727C23.4355 1.1084 17.5781 10.3789 17.5781 21.9795C17.5781 22.123 17.5791 22.2666 17.5791 22.4092C10.3496 16.5342 2.27734 14.7041 1.89746 14.6201C1.78613 14.5957 1.67383 14.583 1.56152 14.583C1.15136 14.583 0.75195 14.7451 0.456052 15.042C0.27057 15.2278 0.134942 15.4574 0.0617133 15.7095C-0.0115151 15.9616 -0.0199783 16.2281 0.0371064 16.4844C0.123044 16.8721 2.05664 25.3242 8.33105 32.6602C3.99609 33.5313 0.986325 35.1006 0.833005 35.1807C0.581778 35.3134 0.37148 35.512 0.224729 35.7553C0.0779778 35.9986 0.000325975 36.2773 0.000125113 36.5614C-7.57498e-05 36.8455 0.077182 37.1243 0.223589 37.3678C0.369996 37.6113 0.580013 37.8103 0.831052 37.9434C1.07031 38.0693 6.76464 41.041 13.8672 41.041C14.4668 41.041 15.0352 41.0313 15.5762 41.0107C14.4658 43.1816 13.9629 44.752 13.9346 44.8408C13.7588 45.3955 13.9062 46.002 14.3164 46.4141C14.518 46.6163 14.771 46.7595 15.0482 46.8282C15.3253 46.8969 15.616 46.8884 15.8887 46.8037C16.0674 46.748 19.5723 45.6328 23.4375 42.9668V49.2188C23.4375 49.6504 23.7871 50 24.2187 50H25.7812C26.2129 50 26.5625 49.6504 26.5625 49.2188V42.9678C30.4277 45.6338 33.9326 46.748 34.1113 46.8047C34.384 46.8894 34.6747 46.8979 34.9518 46.8292C35.229 46.7605 35.482 46.6173 35.6836 46.415C36.0937 46.0029 36.2412 45.3965 36.0654 44.8418C36.0371 44.7529 35.5332 43.1826 34.4238 41.0117C34.9648 41.0322 35.5342 41.042 36.1328 41.042C43.2344 41.042 48.9297 38.0703 49.1689 37.9443C49.6807 37.6729 50.001 37.1416 50 36.5625C49.999 35.9824 49.6787 35.4502 49.167 35.1807V35.1807Z" fill="#71BBFF"/>
</g>
<defs>
<clipPath id="clip0_2_8">
<rect width="50" height="50" fill="white"/>
</clipPath>
</defs>
</svg>
